<?xml version="1.0" standalone="no"?>
<!DOCTYPE svg PUBLIC "-//W3C//DTD SVG 20010904//EN"
 "http://www.w3.org/TR/2001/REC-SVG-20010904/DTD/svg10.dtd">
<svg version="1.0" xmlns="http://www.w3.org/2000/svg"
 width="597.000000pt" height="418.000000pt" viewBox="0 0 597.000000 418.000000"
 preserveAspectRatio="xMidYMid meet">

<g transform="translate(0.000000,418.000000) scale(0.100000,-0.100000)"
fill="#fff" stroke="none">
<path d="M2944 4031 c-336 -79 -596 -328 -686 -660 -30 -109 -30 -333 0 -442
68 -249 242 -467 460 -578 63 -32 45 -37 -27 -7 -85 34 -216 122 -298 200 -39
36 -86 72 -104 80 -115 48 -284 61 -400 31 -64 -17 -195 -79 -235 -113 -18
-14 -134 -284 -134 -311 0 -4 38 11 84 34 181 91 353 106 544 50 29 -9 52 -19
52 -24 0 -13 -140 -75 -309 -137 -279 -102 -549 -103 -767 -4 l-66 30 7 -163
c9 -245 4 -229 83 -265 120 -56 181 -67 352 -67 200 0 312 26 548 126 52 22
96 39 98 37 7 -7 -131 -135 -206 -192 -156 -117 -323 -181 -506 -194 l-101 -7
74 -170 c41 -93 80 -173 86 -177 17 -11 109 -9 191 2 212 31 406 148 629 380
60 61 110 110 112 108 1 -1 -11 -37 -27 -78 -47 -115 -71 -248 -65 -350 9
-138 68 -283 154 -378 l38 -43 135 -24 c74 -13 161 -28 193 -33 l58 -9 -34 36
c-273 290 -261 602 42 1086 125 200 195 305 203 305 12 0 105 -136 153 -225
24 -44 56 -116 70 -159 23 -70 26 -92 23 -181 -3 -93 -6 -107 -40 -176 -37
-75 -85 -133 -168 -203 -38 -32 -41 -38 -20 -33 14 3 106 13 205 23 l180 17
65 66 c128 130 172 270 140 441 -6 29 -9 54 -8 56 2 1 46 -47 98 -108 117
-136 272 -285 365 -351 85 -60 228 -130 311 -151 72 -19 254 -31 271 -19 7 5
46 85 87 178 l75 170 -52 2 c-215 10 -385 70 -552 196 -76 56 -218 187 -211
194 2 2 46 -13 97 -35 131 -55 268 -98 374 -118 124 -22 313 -15 409 16 97 31
174 69 180 89 2 9 7 98 11 198 l7 183 -63 -30 c-217 -100 -479 -98 -768 6
-124 45 -301 124 -301 135 0 4 23 15 52 24 192 57 363 41 546 -51 47 -24 87
-42 88 -41 1 1 -27 72 -61 157 -69 169 -62 161 -186 225 -103 53 -176 68 -304
62 -161 -6 -225 -29 -312 -112 -37 -36 -103 -90 -148 -119 -75 -51 -233 -131
-242 -122 -4 3 63 46 73 46 3 0 33 19 67 42 248 168 397 448 397 748 0 406
-260 748 -657 866 -122 36 -311 42 -429 15z m399 -146 c31 -10 57 -21 57 -25
0 -4 -20 -15 -45 -25 -99 -37 -200 -164 -212 -265 -8 -66 -19 -71 -28 -12 -16
114 -97 225 -199 273 l-59 28 29 12 c83 33 122 38 259 35 97 -2 158 -9 198
-21z m-465 -149 c118 -61 165 -194 118 -334 -73 -216 -398 -202 -472 22 -20
60 -14 137 15 194 26 51 101 117 149 131 50 14 151 7 190 -13z m705 8 c98 -33
167 -137 167 -248 0 -95 -69 -196 -158 -233 -53 -22 -155 -18 -207 7 -55 27
-118 96 -133 148 -64 212 124 397 331 326z m-1149 -370 c10 -37 57 -104 102
-144 39 -34 132 -80 162 -80 15 0 15 -2 2 -10 -8 -5 -26 -10 -40 -10 -36 0
-130 -61 -169 -110 -18 -22 -43 -64 -55 -93 l-24 -52 -16 55 c-43 140 -43 289
-1 428 17 55 28 60 39 16z m1442 -36 c26 -88 26 -297 0 -385 -10 -35 -22 -63
-26 -63 -4 0 -15 20 -24 45 -35 91 -146 183 -241 200 l-39 7 50 17 c114 38
183 98 226 197 13 28 26 50 29 48 3 -2 15 -32 25 -66z m-704 -15 c10 -9 18
-30 18 -49 0 -57 -69 -85 -110 -44 -58 58 31 149 92 93z m-132 -133 c11 -11
20 -28 20 -38 0 -25 -26 -59 -50 -65 -27 -7 -70 28 -70 59 0 29 33 64 60 64
11 0 29 -9 40 -20z m269 -6 c26 -33 26 -49 1 -74 -37 -37 -120 -13 -120 35 0
24 46 65 74 65 15 0 33 -11 45 -26z m-131 -121 c29 -39 -1 -113 -47 -113 -32
0 -71 39 -71 70 0 59 82 89 118 43z m-311 -38 c91 -38 144 -122 146 -230 3
-159 -94 -260 -248 -260 -76 1 -110 14 -170 67 -118 103 -108 296 20 394 68
52 169 63 252 29z m734 -2 c50 -19 122 -99 137 -151 38 -126 -15 -253 -132
-315 -55 -29 -165 -30 -220 -3 -93 46 -145 131 -146 235 0 78 22 129 79 185
74 72 179 90 282 49z m-460 -286 c16 -120 96 -224 212 -277 l62 -28 -30 -12
c-122 -47 -299 -55 -435 -20 -46 12 -89 24 -94 27 -5 3 18 18 51 33 106 48
196 170 209 285 8 66 15 64 25 -8z m-1153 -302 c1 -1 -2 -14 -7 -29 -9 -21
-17 -26 -46 -26 -41 0 -46 19 -14 51 17 17 49 19 67 4z m2367 -22 l14 -33 -38
0 c-31 0 -40 5 -49 25 -15 34 -16 33 11 38 38 8 48 3 62 -30z m-2526 -13 c-6
-16 -18 -31 -27 -34 -10 -2 -27 -7 -40 -11 -21 -6 -22 -4 -16 22 8 35 30 53
65 53 27 0 27 -1 18 -30z m295 21 c4 -5 2 -21 -4 -36 -9 -24 -14 -27 -42 -21
-41 8 -43 11 -30 41 9 18 19 25 41 25 16 0 32 -4 35 -9z m2090 -17 c8 -31 8
-32 -30 -40 -26 -5 -32 -2 -43 22 -14 32 -3 44 40 44 21 0 28 -6 33 -26z m279
14 c9 -7 19 -26 23 -42 6 -25 5 -28 -10 -23 -10 4 -23 7 -29 7 -21 0 -35 15
-42 43 -6 24 -4 27 17 27 13 0 32 -6 41 -12z m-2823 -65 c-10 -27 -75 -72 -87
-59 -12 12 26 63 57 77 19 10 36 16 38 15 1 -2 -3 -16 -8 -33z m581 27 c22
-12 24 -29 6 -54 -11 -15 -17 -16 -40 -5 -27 12 -32 24 -21 53 7 18 27 20 55
6z m1817 -14 c12 -27 4 -38 -35 -50 -18 -6 -25 -2 -35 19 -11 24 -10 29 7 41
28 21 50 17 63 -10z m556 7 c22 -10 39 -27 46 -46 5 -17 8 -32 6 -34 -2 -2
-20 4 -39 13 -23 11 -40 28 -47 47 -15 45 -16 44 34 20z m-1378 -278 c19 -29
19 -30 -18 -39 -22 -5 -31 -1 -44 20 -15 22 -15 27 -3 35 25 15 48 10 65 -16z
m-203 -25 c11 -10 -21 -60 -37 -60 -6 0 -17 4 -25 9 -12 8 -12 14 -1 40 10 25
17 30 34 25 11 -3 25 -10 29 -14z m-383 -67 c0 -10 -9 -29 -20 -43 -16 -21
-21 -22 -29 -11 -7 10 -3 24 10 43 23 32 39 36 39 11z m670 -34 c0 -5 -12 -12
-27 -15 -20 -6 -31 -2 -45 16 -24 30 -23 38 10 42 26 4 62 -21 62 -43z m323
-19 c-3 -11 -9 -20 -14 -20 -14 0 -41 61 -34 78 6 15 10 13 30 -10 15 -17 21
-35 18 -48z m-1403 26 c0 -25 -7 -39 -22 -50 -35 -25 -48 -20 -48 19 0 27 6
37 28 49 39 22 42 20 42 -18z m1800 19 c25 -13 30 -22 30 -51 0 -32 -2 -35
-22 -29 -31 9 -48 33 -48 67 0 33 1 33 40 13z m-1080 -51 c2 -3 -2 -17 -11
-32 -12 -21 -21 -26 -45 -24 -38 5 -39 6 -18 42 16 25 23 30 44 25 14 -4 27
-9 30 -11z m-850 -33 c0 -34 -4 -40 -29 -49 -35 -12 -41 -8 -41 29 0 21 8 32
28 43 39 22 42 20 42 -23z m2059 28 c28 -10 31 -15 31 -50 0 -21 -2 -39 -4
-39 -1 0 -17 5 -35 11 -28 10 -31 15 -31 50 0 21 2 39 4 39 1 0 17 -5 35 -11z
m-1613 -63 c3 -14 -2 -35 -14 -56 l-20 -32 -16 30 c-14 28 -14 32 5 56 25 32
37 33 45 2z m822 0 c13 -29 7 -36 -29 -36 -18 0 -32 7 -39 20 -14 27 -5 40 29
40 20 0 31 -7 39 -24z m360 -54 c-15 -38 -18 -39 -47 -8 -22 23 -22 25 -6 56
l17 33 24 -24 c22 -22 23 -27 12 -57z m-1758 33 c0 -29 -5 -37 -26 -45 -33
-13 -44 -6 -44 30 0 30 20 49 53 50 13 0 17 -8 17 -35z m2331 25 c13 -8 19
-21 19 -45 0 -38 -5 -40 -44 -25 -21 8 -26 16 -26 45 0 38 14 44 51 25z
m-3171 -25 c25 -13 30 -22 30 -50 0 -40 -1 -40 -40 -20 -25 13 -30 22 -30 50
0 40 1 40 40 20z m3990 -20 c0 -28 -5 -37 -30 -50 -39 -20 -40 -20 -40 20 0
27 6 37 28 49 39 22 42 20 42 -19z m-3290 -30 c0 -35 -6 -41 -45 -47 -16 -2
-21 3 -23 34 -2 28 1 37 15 41 46 12 53 8 53 -28z m1042 17 c4 -4 -3 -20 -15
-35 -20 -25 -25 -27 -49 -18 -27 10 -27 10 -10 41 14 25 21 30 42 25 14 -4 28
-10 32 -13z m1566 12 c19 -6 23 -12 20 -43 -2 -30 -7 -35 -23 -33 -39 6 -45
12 -45 47 0 36 6 40 48 29z m-3151 -28 c0 0 3 -17 4 -36 4 -33 2 -35 -25 -33
-34 3 -46 17 -46 56 0 27 2 28 33 22 17 -4 33 -8 34 -9z m3703 -21 c0 -29 -5
-37 -26 -45 -35 -14 -34 -15 -34 29 0 29 5 41 18 44 37 10 42 7 42 -28z
m-3290 -14 c0 -35 -3 -39 -30 -43 -37 -6 -40 -3 -40 38 0 32 9 40 53 43 13 1
17 -7 17 -38z m2868 33 c18 -5 22 -13 22 -46 0 -33 -3 -39 -16 -34 -9 3 -24 6
-35 6 -16 0 -19 7 -19 40 0 41 5 45 48 34z m-1148 -50 c0 -30 -66 -32 -74 -1
-9 34 -8 35 22 39 27 4 52 -14 52 -38z m-1992 -7 c3 -38 3 -38 -30 -35 -30 3
-33 6 -36 41 -3 38 -3 38 30 35 30 -3 33 -6 36 -41z m142 3 c0 -39 -1 -40 -35
-40 -34 0 -35 1 -35 40 0 39 1 40 35 40 34 0 35 -1 35 -40z m3150 0 c0 -39 -1
-40 -35 -40 -34 0 -35 1 -35 40 0 39 1 40 35 40 34 0 35 -1 35 -40z m141 3
c-6 -34 -10 -38 -39 -41 -30 -3 -32 -2 -32 31 0 42 5 47 45 47 31 0 32 -1 26
-37z m-2411 -3 c12 -28 10 -33 -10 -55 -30 -32 -33 -31 -47 5 -9 25 -8 33 9
55 25 32 33 32 48 -5z m1368 7 c19 -21 21 -28 11 -55 -13 -38 -19 -39 -47 -9
-19 21 -21 28 -11 55 13 38 19 39 47 9z m-1040 -43 c27 -8 28 -24 4 -54 -15
-18 -21 -20 -45 -11 -27 11 -27 11 -12 41 17 32 18 33 53 24z m668 -49 c8 -31
8 -30 -33 -38 -25 -5 -33 -3 -33 7 0 8 -3 21 -6 29 -3 10 2 17 13 20 40 10 53
7 59 -18z m-1090 -23 c9 -24 7 -33 -13 -58 -19 -24 -25 -27 -33 -14 -21 31
-23 61 -5 80 25 27 39 25 51 -8z m1559 8 c17 -19 16 -48 -4 -79 -8 -12 -13
-11 -30 10 -23 27 -25 42 -11 70 13 24 22 24 45 -1z m-1207 -66 c19 -6 22 -11
17 -33 -9 -36 -18 -43 -49 -35 -29 7 -30 11 -16 48 10 28 13 29 48 20z m-449
-46 c10 -29 9 -35 -13 -56 l-24 -25 -17 33 c-16 31 -16 33 6 56 29 31 35 30
48 -8z m1199 5 c-3 -24 -8 -28 -40 -31 -32 -3 -38 0 -38 15 0 27 20 43 53 43
25 0 28 -3 25 -27z m550 4 c19 -21 21 -28 11 -55 -13 -38 -19 -39 -47 -9 -19
20 -20 27 -10 55 15 38 18 39 46 9z m-1858 -108 c12 -28 11 -33 -13 -56 l-25
-26 -17 33 c-16 31 -16 33 6 56 29 31 34 30 49 -7z m525 10 c3 -4 3 -20 -1
-34 -6 -26 -35 -33 -63 -16 -12 8 -12 14 -2 39 10 23 17 28 37 24 13 -2 27 -8
29 -13z m1444 -3 c22 -23 22 -25 6 -56 l-17 -33 -24 25 c-22 21 -23 27 -13 56
13 38 19 39 48 8z m-679 7 c-1 -35 -14 -51 -46 -55 -27 -3 -34 0 -34 13 0 25
27 49 56 49 13 0 24 -3 24 -7z m793 -138 c-13 -27 -20 -32 -33 -25 -32 17 -38
33 -23 68 l13 33 30 -21 c29 -21 29 -21 13 -55z m-2185 35 c10 -26 8 -32 -16
-50 l-26 -21 -13 23 c-17 32 -16 48 5 64 26 21 39 17 50 -16z m1336 -29 c-11
-19 -28 -31 -48 -34 -40 -6 -49 3 -27 29 19 24 36 32 69 33 23 1 23 1 6 -28z
m-761 10 c20 -8 23 -15 19 -41 -4 -27 -8 -31 -26 -26 -11 3 -27 6 -33 6 -14 0
-17 28 -7 54 7 18 14 19 47 7z m-690 -38 c2 -10 8 -25 11 -34 5 -11 -1 -19
-19 -27 -14 -7 -28 -12 -30 -12 -6 0 -37 61 -33 64 12 10 45 25 54 26 7 0 14
-8 17 -17z m2400 6 c12 -7 23 -13 25 -14 5 -4 -27 -65 -34 -65 -5 0 -45 20
-52 25 -5 4 27 65 34 65 3 0 15 -5 27 -11z m-2523 -80 c11 -26 11 -32 -1 -40
-26 -16 -48 -9 -64 21 -14 27 -14 30 3 39 30 18 49 12 62 -20z m2664 18 c17
-13 17 -15 2 -45 -15 -29 -18 -30 -46 -21 -16 6 -30 12 -30 13 0 2 5 17 11 35
12 33 33 40 63 18z m-1174 -13 c0 -3 -12 -16 -27 -28 -26 -20 -93 -40 -93 -26
0 12 44 48 65 53 30 7 55 8 55 1z m-1615 -36 c15 -36 7 -48 -32 -48 -22 0 -43
26 -43 54 0 13 10 17 53 25 4 0 14 -14 22 -31z m2933 17 c10 -9 -31 -65 -47
-65 -45 0 -51 9 -33 46 14 31 19 34 47 28 16 -3 31 -8 33 -9z m-3070 -30 c18
-39 15 -45 -21 -45 -26 0 -36 6 -45 25 -18 39 -15 45 21 45 26 0 36 -6 45 -25z
m1060 19 c17 -5 22 -14 22 -40 0 -32 -2 -34 -27 -28 -41 10 -43 12 -43 45 0
30 7 33 48 23z m2135 -29 c-14 -30 -22 -35 -50 -35 -36 0 -39 6 -21 45 9 20
18 25 49 25 l39 0 -17 -35z m-2119 -105 c19 -7 26 -17 26 -36 0 -24 -3 -25
-27 -19 -33 8 -39 13 -48 43 -7 25 7 29 49 12z m43 -120 c14 0 48 -59 39 -67
-3 -3 -20 -2 -37 3 -21 6 -35 19 -45 43 -14 33 -13 33 8 27 13 -3 29 -6 35 -6z
m124 -176 l33 -34 -33 0 c-24 0 -41 8 -62 31 -16 17 -29 34 -29 38 0 19 62 -5
91 -35z"/>
</g>
</svg>
